PathFileType  4	(X/Y/Z) C:\Users\antoi\Documents\MyRepositories\mobilecap\ResultsAnalysis
DataRate	CameraRate	NumFrames	NumMarkers	Units	OrigDataRate	OrigDataStartFrame	OrigNumFrames
100.0	100.0	5	51	mm	100.0	19	150
Frame#	Time	r_knee			r_shank_antsup			r_ankle			r_calc			r_5meta			r_toe			L_knee			L_shank_antsup			L_ankle			L_calc			L_5meta			L_toe			r_sh2			r_sh3			r_sh4			L_sh2			L_sh3			r_thigh1			r_thigh2			r_thigh3			r_thigh4			r_thigh5			L_thigh1			L_thigh2			L_thigh3			L_thigh4			r.ASIS			r.PSIS			L.ASIS			L.PSIS			C7			R_Shoulder			L_Shoulder			R_Sternum			L_Sternum			R_humerus			R_elbow_med			R_elbow_lat			R_forearm			R_wrist_radius			R_wrist_ulna			L_humerus			L_elbow_med			L_elbow_lat			L_forearm			L_wrist_radius			L_wrist_ulna			R_HJC			L_HJC			R_HJC_reg			L_HJC_reg			
		X1	Y1	Z1	X2	Y2	Z2	X3	Y3	Z3	X4	Y4	Z4	X5	Y5	Z5	X6	Y6	Z6	X7	Y7	Z7	X8	Y8	Z8	X9	Y9	Z9	X10	Y10	Z10	X11	Y11	Z11	X12	Y12	Z12	X13	Y13	Z13	X14	Y14	Z14	X15	Y15	Z15	X16	Y16	Z16	X17	Y17	Z17	X18	Y18	Z18	X19	Y19	Z19	X20	Y20	Z20	X21	Y21	Z21	X22	Y22	Z22	X23	Y23	Z23	X24	Y24	Z24	X25	Y25	Z25	X26	Y26	Z26	X27	Y27	Z27	X28	Y28	Z28	X29	Y29	Z29	X30	Y30	Z30	X31	Y31	Z31	X32	Y32	Z32	X33	Y33	Z33	X34	Y34	Z34	X35	Y35	Z35	X36	Y36	Z36	X37	Y37	Z37	X38	Y38	Z38	X39	Y39	Z39	X40	Y40	Z40	X41	Y41	Z41	X42	Y42	Z42	X43	Y43	Z43	X44	Y44	Z44	X45	Y45	Z45	X46	Y46	Z46	X47	Y47	Z47	X48	Y48	Z48	X49	Y49	Z49	X50	Y50	Z50	X51	Y51	Z51	

19	0.18000000	144.65326	538.50385	-29.90620	176.15323	459.79640	-21.70958	143.26042	98.60877	-50.26351	86.35497	53.95766	-95.38310	295.94199	36.97160	-35.40646	324.67335	69.26672	-93.87183	86.75720	517.91604	-328.22385	26.53506	416.21136	-336.03952	-254.91152	253.91643	-279.61249	-324.20196	288.83378	-229.25962	-243.71680	86.73007	-317.21632	-201.23246	86.76143	-258.50382	183.05456	347.07933	-18.86316	103.97172	455.46371	3.73786	100.36994	340.08073	-1.43982	-23.61861	489.94552	-339.34156	-116.14916	414.45841	-325.53586	165.26208	863.92964	4.41369	192.29757	758.08219	-12.81541	146.54549	716.76891	16.92015	57.63197	829.50250	17.26318	91.07980	718.80334	8.09997	128.93502	840.29499	-343.25425	159.28536	706.71953	-346.73122	15.81328	813.79786	-335.90571	52.03733	679.36513	-343.37337	152.36269	1053.25180	-46.13837	-49.11549	1087.38403	-112.71895	135.50900	1024.43728	-302.44345	-55.19413	1076.85958	-215.78038	-31.84850	1592.80460	-186.20890	18.71511	1550.61676	-11.96090	37.32962	1583.95394	-328.43132	121.44057	1522.20779	-145.03492	125.60808	1522.15102	-200.66278	-27.46682	1285.00587	76.54446	-65.72094	1195.32892	2.94170	-59.85560	1201.08897	86.15506	9.81850	1055.71526	109.75670	55.61521	949.39727	106.97778	11.40814	946.95585	118.14738	62.96360	1343.96489	-452.02134	18.40427	1235.78475	-413.26369	54.13186	1255.52100	-474.65793	191.49106	1143.77379	-459.64312	268.65335	1088.53252	-427.80774	248.58011	1063.06768	-452.70515	65.71939	975.62659	-37.74692	51.94308	950.93213	-266.37406	74.67616	974.19957	-70.37367	64.68361	956.89394	-239.78404	
20	0.19000000	148.36329	538.68149	-28.84313	179.06870	459.61274	-20.63429	143.63206	98.32502	-50.25615	86.34184	53.89357	-95.38285	296.08962	36.86535	-35.32487	324.73392	68.94460	-93.93039	109.55227	520.78743	-328.47647	48.15787	420.60071	-334.80093	-235.65675	264.41209	-276.86756	-302.77958	300.95020	-224.94538	-230.23663	96.54492	-315.94750	-185.63706	94.09594	-258.50709	184.82111	346.78775	-18.00785	106.69969	455.95039	4.25936	101.96153	340.57432	-1.15290	0.20686	494.86091	-338.57141	-93.72313	421.30197	-323.92418	173.39353	864.04161	6.01471	199.17598	757.79818	-11.21248	152.52470	717.12742	18.21245	65.09528	831.05203	18.14016	97.26825	719.81795	8.96154	142.56953	843.07222	-343.16517	176.14863	710.21528	-347.75513	30.06985	813.51199	-334.33803	69.57292	680.40110	-342.68519	163.04868	1054.00821	-45.11385	-38.36555	1088.88512	-111.62955	146.14728	1025.90700	-301.53669	-44.49149	1077.81470	-214.55143	-20.85486	1594.15432	-184.99997	30.23368	1551.99079	-10.76108	48.41121	1585.03300	-327.51687	132.44973	1523.32202	-143.91943	136.59493	1523.16434	-199.60030	-15.46198	1286.47110	78.28601	-53.84672	1196.61401	4.81310	-47.60876	1202.46918	88.02836	22.34296	1057.27518	111.40939	68.36828	951.16167	108.57354	24.27278	948.54892	119.74691	70.57094	1344.01329	-450.00186	24.58111	1236.99261	-410.31079	60.32234	1255.57406	-471.97335	194.82778	1140.22485	-457.58823	270.55704	1082.95564	-426.14613	249.65526	1057.92193	-450.64513	76.40593	976.56173	-36.83554	62.52673	952.26367	-265.49943	84.99308	976.26066	-69.02913	74.91388	958.04209	-238.37021	
21	0.20000000	152.02422	538.88116	-27.85898	182.01612	459.48291	-19.65063	144.12317	97.98133	-50.24639	86.36402	53.86190	-95.34750	296.24937	36.79272	-35.22748	324.79884	68.61575	-93.99678	131.70088	524.09275	-328.72863	69.61800	425.10517	-333.63637	-216.02604	273.97752	-273.87410	-281.55046	310.87447	-220.52797	-213.70459	105.96362	-314.84724	-167.46866	101.48356	-258.48571	186.67171	346.57303	-17.19214	109.51697	456.48711	4.82526	103.69380	341.13149	-0.75472	23.42408	499.80408	-337.66578	-71.59778	427.75671	-322.34258	181.25336	864.08261	7.60652	205.91938	757.49305	-9.73381	158.42444	717.43453	19.38011	72.36886	832.53830	18.91774	103.32660	720.80786	9.72705	155.90581	846.06254	-343.04987	192.59258	713.98796	-348.61278	44.08762	813.63975	-332.88424	86.78862	681.83092	-341.99708	173.49315	1054.70283	-43.91094	-27.74795	1090.31466	-110.69368	156.86239	1027.35050	-300.48579	-33.82395	1078.83050	-213.52582	-9.82139	1595.46603	-183.97059	41.72410	1553.33659	-9.72085	59.46023	1585.91666	-326.83262	143.43578	1524.37660	-142.96985	147.61602	1524.13208	-198.68458	-3.53157	1287.95712	79.92086	-42.19842	1197.92561	6.66797	-35.44152	1203.85998	89.85643	34.79222	1058.86932	113.05895	81.05317	953.01869	110.23225	37.10105	950.18017	121.36348	78.20346	1343.92306	-448.13513	30.86680	1238.02594	-407.57110	66.62117	1255.48277	-469.45014	198.10128	1136.52447	-455.66130	272.28168	1077.20537	-424.61013	250.57147	1052.64527	-448.69385	86.79157	977.43781	-35.92362	73.14760	953.59100	-264.64891	95.15540	978.11542	-67.67390	85.15193	959.20582	-236.98276	
22	0.21000000	155.69224	539.08960	-26.93778	185.01821	459.39129	-18.75847	144.67988	97.61981	-50.21910	86.43265	53.87494	-95.27436	296.39827	36.73530	-35.12634	324.86546	68.28319	-94.06610	153.23584	527.75854	-328.92909	90.91129	429.68134	-332.63376	-195.95480	282.31770	-270.75464	-260.57446	318.48729	-216.23330	-194.13947	114.53620	-313.84237	-146.78220	108.63865	-258.27568	188.61251	346.41426	-16.42094	112.42819	457.05533	5.40517	105.56059	341.73935	-0.29349	45.92581	504.75294	-336.59792	-49.83469	433.73063	-320.72722	188.89498	864.05695	9.21794	212.57107	757.15248	-8.33003	164.29385	717.69246	20.44667	79.55534	833.95350	19.62359	109.29341	721.78743	10.42197	169.04086	849.24456	-342.91027	208.77233	718.01403	-349.27834	57.91749	814.18603	-331.59501	103.82000	683.57930	-341.41174	183.72000	1055.37788	-42.51694	-17.24552	1091.67055	-109.90085	167.65428	1028.75443	-299.25873	-23.17412	1079.93487	-212.71632	1.24172	1596.73172	-183.13113	53.14225	1554.68686	-8.84499	70.46839	1586.61138	-326.36754	154.40437	1525.39536	-142.17640	158.66839	1525.08634	-197.89983	8.32486	1289.47825	81.42202	-30.78749	1199.30751	8.48120	-23.37708	1205.28366	91.60846	47.15817	1060.52572	114.69342	93.68009	954.95055	111.93792	49.86757	951.87187	123.00056	85.88471	1343.71018	-446.41680	37.25634	1238.90597	-405.05427	73.05248	1255.26368	-467.09403	201.33671	1132.70777	-453.86926	273.86684	1071.31401	-423.19955	251.35960	1047.28658	-446.89244	96.89113	978.29083	-34.98734	83.82080	954.91166	-263.79323	105.19839	979.72399	-66.30773	95.43538	960.39851	-235.62133	
23	0.22000000	159.39068	539.29192	-26.07019	188.06424	459.31950	-17.95179	145.22812	97.29564	-50.16151	86.55029	53.93465	-95.17080	296.52037	36.68167	-35.02998	324.92661	67.95894	-94.13033	174.23876	531.68415	-329.02414	112.03966	434.26657	-331.79380	-175.35628	289.15831	-267.66142	-239.76428	323.79876	-212.27921	-171.82561	121.83106	-312.80703	-123.82021	115.21244	-257.72683	190.61074	346.28407	-15.69397	115.40097	457.63373	5.95697	107.51057	342.37955	0.16593	67.68865	509.62826	-335.37301	-28.42693	439.10678	-319.04469	196.38205	863.96488	10.86454	219.15467	756.76519	-6.92157	170.15203	717.89713	21.43921	86.74229	835.27987	20.28666	115.18625	722.75572	11.07014	182.08293	852.58272	-342.74814	224.83125	722.25537	-349.73484	71.64032	815.12193	-330.50737	120.77593	685.57244	-340.99441	193.76033	1056.04730	-40.95317	-6.84244	1092.94912	-109.22289	178.49783	1030.10944	-297.86520	-12.53380	1081.13456	-212.10095	12.31157	1597.94301	-182.48682	64.45035	1556.07075	-8.13120	81.43266	1587.11949	-326.10464	165.36476	1526.39372	-141.52743	169.74266	1526.04160	-197.23436	20.09149	1291.04646	82.77450	-19.59156	1200.78267	10.21901	-11.45082	1206.75949	93.25514	59.42748	1062.26793	116.29864	106.24270	956.95009	113.66613	62.54618	953.64309	124.65560	93.64891	1343.37783	-444.84099	43.74440	1239.65031	-402.75829	79.63927	1254.92899	-464.90389	204.55957	1128.81216	-452.21915	275.34244	1065.32090	-421.92019	252.05353	1041.89357	-445.27826	106.74016	979.13151	-34.02187	94.53409	956.22152	-262.92144	115.14456	981.06646	-64.94745	105.77467	961.61860	-234.30202	
